<svg width="28" height="28" viewBox="0 0 28 28" fill="none" xmlns="http://www.w3.org/2000/svg">
<path d="M16.3333 2.33334H7.00001C6.38117 2.33334 5.78767 2.57917 5.35009 3.01675C4.9125 3.45434 4.66667 4.04783 4.66667 4.66667V23.3333C4.66667 23.9522 4.9125 24.5457 5.35009 24.9833C5.78767 25.4208 6.38117 25.6667 7.00001 25.6667H21C21.6188 25.6667 22.2123 25.4208 22.6499 24.9833C23.0875 24.5457 23.3333 23.9522 23.3333 23.3333V9.33334L16.3333 2.33334Z" stroke="#1FC8E1" stroke-width="1.5" stroke-linecap="round" stroke-linejoin="round"/>
<path d="M16.3333 2.33334V9.33334H23.3333" stroke="#1FC8E1" stroke-width="1.5" stroke-linecap="round" stroke-linejoin="round"/>
<path d="M18.6667 15.1667H9.33333" stroke="#1FC8E1" stroke-width="1.5" stroke-linecap="round" stroke-linejoin="round"/>
<path d="M18.6667 19.8333H9.33333" stroke="#1FC8E1" stroke-width="1.5" stroke-linecap="round" stroke-linejoin="round"/>
<path d="M11.6667 10.5H10.5H9.33333" stroke="#1FC8E1" stroke-width="1.5" stroke-linecap="round" stroke-linejoin="round"/>
</svg>
